<?xml version="1.0" standalone="yes"?>
<svg xmlns="http://www.w3.org/2000/svg" width="642" height="389">
<path style="fill:#010101; stroke:none;" d="M0 0L0 389L1 389C1 384.008 -1.14618 372.381 2.60339 368.603C5.01764 366.17 10.7811 366.163 14 365.374C23.6724 363.003 33.5844 361.469 43 358.136C69.0954 348.899 90.1114 335.688 111 317.576C130.473 300.691 145.052 277.627 158.681 256C192.916 201.677 216.481 140.747 244.222 83C255.21 60.1274 267.84 36.0359 286.001 18.0038C294.239 9.82428 304.043 1.97794 316 1L287 0L223 0L0 0z"/>
<path style="fill:#e9e9e4; stroke:none;" d="M311 1L311 2L324 1L311 1z"/>
<path style="fill:#010101; stroke:none;" d="M324 0L324 1C343.522 2.55362 357.995 18.7425 368.329 34C389.889 65.829 406.132 100.849 421.424 136C448.64 198.556 479.538 272.122 531.001 318.83C561.455 346.471 600.351 362.836 641 368L641 389L642 389L642 0L324 0z"/>
<path style="fill:#b0acab; stroke:none;" d="M2 368L2 389C55.9528 384.736 106.636 356.068 141.845 316C152.148 304.275 161.574 291.253 169.808 278C173.832 271.523 178.282 260.784 185 257L185 256C178.786 254.114 177.174 238.07 181.603 233.377C185.383 229.369 188.379 235.94 188.811 238.995C189.09 240.97 188.995 243.013 189 245L190 245C220.458 187.113 243.045 124.464 276.012 68C284.719 53.0869 298.267 25.9782 316.961 22.1744C336.511 18.1963 353.47 47.8545 361 62C372.013 60.3114 368.801 69.6921 370.39 77C371.336 81.3503 374.172 85.1203 376.219 89C392.08 119.059 405.835 150.857 419.424 182C456.516 267.005 509.903 358.343 606 382.373C617.042 385.135 628.583 388.51 640 389C640 384.3 642.017 373.535 638.972 369.742C636.207 366.297 626.157 366.101 622 365.116C608.441 361.901 594.755 358.423 582 352.688C548.905 337.809 521.654 313.22 500.425 284C452.309 217.772 427.014 139.397 388.309 68C374.416 42.3732 355.419 2.99738 322 1.09335C304.531 0.098114 290.465 12.6252 279.87 25C257.003 51.7087 243.874 85.7206 228.742 117C186.684 203.933 149.757 316.797 52 355.203C36.7609 361.19 18.5219 367.657 2 368z"/>
<path style="fill:#e9e9e4; stroke:none;" d="M325 1L325 2L329 2L325 1M307 2L307 3L310 3L307 2M331 2L331 3L334 3L331 2M305.667 3.33334L306.333 3.66666L305.667 3.33334M334.667 3.33334L335.333 3.66666L334.667 3.33334M303.667 4.33334L304.333 4.66666L303.667 4.33334M336.667 4.33334L337.333 4.66666L336.667 4.33334M301.667 5.33334L302.333 5.66666L301.667 5.33334M338.667 5.33334L339.333 5.66666L338.667 5.33334M300 6L301 7L300 6M340.667 6.33334L341.333 6.66666L340.667 6.33334M298.667 7.33334L299.333 7.66666L298.667 7.33334M342 7L345 9L342 7M296.667 8.33334L297.333 8.66666L296.667 8.33334M295 9L296 10L295 9M345 9L346 10L345 9M294 10L295 11L294 10M346 10L349 12L346 10M293 11L294 12L293 11M290 14L293 12L290 14M349 12L350 13L349 12M350 13L351 14L350 13M289 14L290 15L289 14M351 14L352 15L351 14M288 15L289 16L288 15M352 15L356 18L352 15M287 16L288 17L287 16M286 17L287 18L286 17M285 18L286 19L285 18M356 18L358 21L356 18M284 19L285 20L284 19M283 20L284 21L283 20M282 21L283 22L282 21M320 21L321 22L320 21M358 21L359 22L358 21M281 22L279 26L281 22M261 97L262 97C270.412 76.7943 282.479 55.7413 296.59 39C302.242 32.2948 309.849 23.9939 319 23C311.386 20.0652 302.72 30.105 298.039 35C283.171 50.5503 266.99 76.2076 261 97z"/>
<path style="fill:#010101; stroke:none;" d="M12 388L12 389L179 389C179 384.344 176.499 367.636 184.025 367.636C191.595 367.636 189 384.274 189 389L360 389L360 367C374.147 366.216 371 378.302 371 389L629 389L629 388C615.588 386.268 601.776 382.35 589 377.997C464.47 335.566 427.052 187.52 372 83C368.717 85.8592 364.314 89.1734 361.318 83.8658C357.475 77.0581 362.034 68.0905 359.547 61C354.662 47.0732 336.464 21.9623 320 22.4599C312.475 22.6873 306.181 28.0888 301.039 33.0895C273.888 59.4963 259.2 101.224 243.691 135C226.821 171.742 208.885 207.824 190.904 244C189.341 247.146 189.627 250.897 187.974 253.896C184.419 260.344 177.714 266.552 173.505 273C135.483 331.24 83.5796 378.756 12 388z"/>
<path style="fill:#e9e9e4; stroke:none;" d="M322 22L322 23L327 23L322 22M359 22L360 23L359 22M327 23L330 25L327 23M360 23L362 26L360 23M330.667 25.3333L331.333 25.6667L330.667 25.3333M278 26L279 27L278 26M332 26L335 28L332 26M362 26L363 27L362 26M277 27L278 28L277 27M363 27L364 28L363 27M276 28L277 29L276 28M335 28L336 29L335 28M364 28L366 31L364 28M275.333 29.6667L275.667 30.3333L275.333 29.6667M336 29L337 30L336 29M337 30L338 31L337 30M274 31L275 32L274 31M338 31L342 35L338 31M366 31L368 34L366 31M273.333 32.6667L273.667 33.3333L273.333 32.6667M272 34L273 35L272 34M368 34L369 35L368 34M271 35L270 38L271 35M342 35L343 36L342 35M369.333 35.6667L369.667 36.3333L369.333 35.6667M343 36L344 37L343 36M344 37L346 40L344 37M370 37L371 38L370 37M269 38L270 39L269 38M371.333 38.6667L371.667 39.3333L371.333 38.6667M268.333 39.6667L268.667 40.3333L268.333 39.6667M346 40L347 41L346 40M372 40L373 41L372 40M267 41L268 42L267 41M347 41L348 42L347 41M373.333 41.6667L373.667 42.3333L373.333 41.6667M266.333 42.6667L266.667 43.3333L266.333 42.6667M348.333 42.6667L348.667 43.3333L348.333 42.6667M374 43L375 44L374 43M265 44L264 47L265 44M349 44L350 45L349 44M375.333 44.6667L375.667 45.3333L375.333 44.6667M350 45L352 48L350 45M376.333 46.6667L376.667 47.3333L376.333 46.6667M263.333 47.6667L263.667 48.3333L263.333 47.6667M352.333 48.6667L352.667 49.3333L352.333 48.6667M377 48L378 49L377 48M262 49L261 52L262 49M378.333 49.6667L378.667 50.3333L378.333 49.6667M353 50L354 51L353 50M354 51L356 54L354 51M379.333 51.6667L379.667 52.3333L379.333 51.6667M260.333 52.6667L260.667 53.3333L260.333 52.6667M380 53L381 54L380 53M259 54L258 57L259 54M356 54L358 57L356 54M381.333 54.6667L381.667 55.3333L381.333 54.6667M382.333 56.6667L382.667 57.3333L382.333 56.6667M257.333 57.6667L257.667 58.3333L257.333 57.6667M358.333 57.6667L358.667 58.3333L358.333 57.6667M383 58L385 61L383 58M256.333 59.6667L256.667 60.3333L256.333 59.6667M359 59C360.801 66.7774 358.235 75.4093 360.573 82.9452C362.518 89.2159 368.568 87.807 371 83L372 83L377 93L378 93L371 78L370 78C369.743 81.3911 365.557 89.1764 362.603 82.767C359.131 75.2326 365.278 65.7003 359 59M255.333 61.6667L255.667 62.3333L255.333 61.6667z"/>
<path style="fill:#fac41a; stroke:none;" d="M363.603 62.0471C359.903 64.7534 360.349 89.3221 367.687 84.9283C372.817 81.8562 370.601 56.9283 363.603 62.0471z"/>
<path style="fill:#e9e9e4; stroke:none;" d="M385.333 61.6667L385.667 62.3333L385.333 61.6667M254 63L255 64L254 63M386.333 63.6667L386.667 64.3333L386.333 63.6667M253.333 64.6667L253.667 65.3333L253.333 64.6667M387.333 65.6667L387.667 66.3333L387.333 65.6667M252.333 66.6667L252.667 67.3333L252.333 66.6667M388.333 67.6667L388.667 68.3333L388.333 67.6667M251.333 68.6667L251.667 69.3333L251.333 68.6667M389.333 69.6667L389.667 70.3333L389.333 69.6667M250.333 70.6667L250.667 71.3333L250.333 70.6667M390 71L391 72L390 71M249.333 72.6667L249.667 73.3333L249.333 72.6667M391.333 72.6667L391.667 73.3333L391.333 72.6667M248.333 74.6667L248.667 75.3333L248.333 74.6667M392.333 74.6667L392.667 75.3333L392.333 74.6667M247 76L248 77L247 76M393.333 76.6667L393.667 77.3333L393.333 76.6667M246 77L246 80L247 80L246 77M394.333 78.6667L394.667 79.3333L394.333 78.6667M245.333 80.6667L245.667 81.3333L245.333 80.6667M395.333 80.6667L395.667 81.3333L395.333 80.6667M244.333 82.6667L244.667 83.3333L244.333 82.6667M396.333 82.6667L396.667 83.3333L396.333 82.6667M243.333 84.6667L243.667 85.3333L243.333 84.6667M397.333 84.6667L397.667 85.3333L397.333 84.6667M242.333 86.6667L242.667 87.3333L242.333 86.6667M398.333 86.6667L398.667 87.3333L398.333 86.6667M241.333 88.6667L241.667 89.3333L241.333 88.6667M399.333 88.6667L399.667 89.3333L399.333 88.6667M240 90L240 93L241 93L240 90M400.333 90.6667L400.667 91.3333L400.333 90.6667M401.333 92.6667L401.667 93.3333L401.333 92.6667M239.333 93.6667L239.667 94.3333L239.333 93.6667M378 93L384 108L385 108L378 93M369 123C369.804 119.13 370.991 116.133 371 112L370.999 103C370.968 98.5024 367.577 89.8233 361.858 95.7423C354.577 103.278 360.24 120.426 369 123M402.333 94.6667L402.667 95.3333L402.333 94.6667M238.333 95.6667L238.667 96.3333L238.333 95.6667z"/>
<path style="fill:#fac41a; stroke:none;" d="M364.302 96.0864C359.685 98.7423 360.447 123.479 367.687 118.953C372.321 116.056 371.07 92.1939 364.302 96.0864z"/>
<path style="fill:#e9e9e4; stroke:none;" d="M403.333 96.6667L403.667 97.3333L403.333 96.6667M237.333 97.6667L237.667 98.3333L237.333 97.6667M260.333 98.6667L260.667 99.3333L260.333 98.6667M404.333 98.6667L404.667 99.3333L404.333 98.6667M236.333 99.6667L236.667 100.333L236.333 99.6667M259.333 100.667L259.667 101.333L259.333 100.667M405.333 100.667L405.667 101.333L405.333 100.667M235.333 101.667L235.667 102.333L235.333 101.667M258.333 102.667L258.667 103.333L258.333 102.667M406.333 102.667L406.667 103.333L406.333 102.667M234.333 103.667L234.667 104.333L234.333 103.667M257.333 104.667L257.667 105.333L257.333 104.667M407.333 104.667L407.667 105.333L407.333 104.667M233.333 105.667L233.667 106.333L233.333 105.667M256.333 106.667L256.667 107.333L256.333 106.667M408.333 106.667L408.667 107.333L408.333 106.667M232.333 107.667L232.667 108.333L232.333 107.667M255.333 108.667L255.667 109.333L255.333 108.667M385.333 108.667L385.667 109.333L385.333 108.667M409 108L409 111L410 111L409 108M231.333 109.667L231.667 110.333L231.333 109.667M254.333 110.667L254.667 111.333L254.333 110.667M386.333 110.667L386.667 111.333L386.333 110.667M230 111L229 116L230 116L230 111M410.333 111.667L410.667 112.333L410.333 111.667M387.333 112.667L387.667 113.333L387.333 112.667M253.333 113.667L253.667 114.333L253.333 113.667M411.333 113.667L411.667 114.333L411.333 113.667M388.333 114.667L388.667 115.333L388.333 114.667M252.333 115.667L252.667 116.333L252.333 115.667M412.333 115.667L412.667 116.333L412.333 115.667M228.333 116.667L228.667 117.333L228.333 116.667M389.333 116.667L389.667 117.333L389.333 116.667M251.333 117.667L251.667 118.333L251.333 117.667M413.333 117.667L413.667 118.333L413.333 117.667M227.333 118.667L227.667 119.333L227.333 118.667M390.333 118.667L390.667 119.333L390.333 118.667M250.333 119.667L250.667 120.333L250.333 119.667M414 119L414 122L415 122L414 119M226.333 120.667L226.667 121.333L226.333 120.667M391.333 120.667L391.667 121.333L391.333 120.667M249.333 121.667L249.667 122.333L249.333 121.667M225.333 122.667L225.667 123.333L225.333 122.667M392.333 122.667L392.667 123.333L392.333 122.667M415.333 122.667L415.667 123.333L415.333 122.667M248.333 123.667L248.667 124.333L248.333 123.667M224.333 124.667L224.667 125.333L224.333 124.667M393 124L393 127L394 127L393 124M416.333 124.667L416.667 125.333L416.333 124.667M247.333 125.667L247.667 126.333L247.333 125.667M223 126L222 131L223 131L223 126M417 126L417 129L418 129L417 126M246.333 127.667L246.667 128.333L246.333 127.667M394.333 127.667L394.667 128.333L394.333 127.667M363.279 128.758C356.94 131.567 357.782 159.211 367.853 155.098C373.882 152.635 373.803 124.093 363.279 128.758M245.333 129.667L245.667 130.333L245.333 129.667z"/>
<path style="fill:#fac41a; stroke:none;" d="M364.302 130.086C359.685 132.742 360.447 157.479 367.687 152.953C372.321 150.056 371.07 126.194 364.302 130.086z"/>
<path style="fill:#e9e9e4; stroke:none;" d="M395 129L396 134L397 134L395 129M418.333 129.667L418.667 130.333L418.333 129.667M221.333 131.667L221.667 132.333L221.333 131.667M244 131L244 134L245 134L244 131M419.333 131.667L419.667 132.333L419.333 131.667M220.333 133.667L220.667 134.333L220.333 133.667M420 133L420 136L421 136L420 133M243.333 134.667L243.667 135.333L243.333 134.667M397.333 134.667L397.667 135.333L397.333 134.667M219.333 135.667L219.667 136.333L219.333 135.667M242.333 136.667L242.667 137.333L242.333 136.667M398.333 136.667L398.667 137.333L398.333 136.667M421.333 136.667L421.667 137.333L421.333 136.667M218.333 137.667L218.667 138.333L218.333 137.667M241.333 138.667L241.667 139.333L241.333 138.667M399.333 138.667L399.667 139.333L399.333 138.667M422.333 138.667L422.667 139.333L422.333 138.667M217 139L217 142L218 142L217 139M240.333 140.667L240.667 141.333L240.333 140.667M423.333 140.667L423.667 141.333L423.333 140.667M400.333 141.667L400.667 142.333L400.333 141.667M216.333 142.667L216.667 143.333L216.333 142.667M239.333 142.667L239.667 143.333L239.333 142.667M424.333 142.667L424.667 143.333L424.333 142.667M401.333 143.667L401.667 144.333L401.333 143.667M215.333 144.667L215.667 145.333L215.333 144.667M238.333 144.667L238.667 145.333L238.333 144.667M425.333 144.667L425.667 145.333L425.333 144.667M402.333 145.667L402.667 146.333L402.333 145.667M214.333 146.667L214.667 147.333L214.333 146.667M426 146L426 149L427 149L426 146M237 147L238 148L237 147M403.333 147.667L403.667 148.333L403.333 147.667M213.333 148.667L213.667 149.333L213.333 148.667M236.333 149.667L236.667 150.333L236.333 149.667M404.333 149.667L404.667 150.333L404.333 149.667M427.333 149.667L427.667 150.333L427.333 149.667M212.333 150.667L212.667 151.333L212.333 150.667M235.333 151.667L235.667 152.333L235.333 151.667M428.333 151.667L428.667 152.333L428.333 151.667M211.333 152.667L211.667 153.333L211.333 152.667M405.333 152.667L405.667 153.333L405.333 152.667M234.333 153.667L234.667 154.333L234.333 153.667M429.333 153.667L429.667 154.333L429.333 153.667M210 154L210 157L211 157L210 154M406.333 154.667L406.667 155.333L406.333 154.667M233.333 155.667L233.667 156.333L233.333 155.667M430.333 155.667L430.667 156.333L430.333 155.667M407.333 156.667L407.667 157.333L407.333 156.667M209.333 157.667L209.667 158.333L209.333 157.667M232.333 157.667L232.667 158.333L232.333 157.667M431.333 157.667L431.667 158.333L431.333 157.667M408.333 158.667L408.667 159.333L408.333 158.667M208.333 159.667L208.667 160.333L208.333 159.667M231 159L231 162L232 162L231 159M432.333 159.667L432.667 160.333L432.333 159.667M409.333 160.667L409.667 161.333L409.333 160.667M207.333 161.667L207.667 162.333L207.333 161.667M230.333 162.667L230.667 163.333L230.333 162.667M363.303 162.758C357.002 165.62 357.746 193.226 367.853 189.098C373.898 186.629 373.727 158.022 363.303 162.758M410 162L411 167L412 167L410 162M433.333 162.667L433.667 163.333L433.333 162.667M206.333 163.667L206.667 164.333L206.333 163.667z"/>
<path style="fill:#fac41a; stroke:none;" d="M364.302 164.137C359.641 166.658 360.434 191.488 367.687 186.953C372.231 184.112 371.237 160.387 364.302 164.137z"/>
<path style="fill:#e9e9e4; stroke:none;" d="M229.333 164.667L229.667 165.333L229.333 164.667M434.333 164.667L434.667 165.333L434.333 164.667M205.333 165.667L205.667 166.333L205.333 165.667M228.333 166.667L228.667 167.333L228.333 166.667M435.333 166.667L435.667 167.333L435.333 166.667M204 167L203 172L204 172L204 167M412.333 167.667L412.667 168.333L412.333 167.667M227.333 168.667L227.667 169.333L227.333 168.667M436.333 168.667L436.667 169.333L436.333 168.667M413.333 169.667L413.667 170.333L413.333 169.667M226.333 170.667L226.667 171.333L226.333 170.667M437.333 170.667L437.667 171.333L437.333 170.667M414.333 171.667L414.667 172.333L414.333 171.667M202.333 172.667L202.667 173.333L202.333 172.667M225.333 172.667L225.667 173.333L225.333 172.667M438.333 172.667L438.667 173.333L438.333 172.667M415.333 173.667L415.667 174.333L415.333 173.667M201.333 174.667L201.667 175.333L201.333 174.667M439.333 174.667L439.667 175.333L439.333 174.667M224.333 175.667L224.667 176.333L224.333 175.667M416.333 175.667L416.667 176.333L416.333 175.667M200.333 176.667L200.667 177.333L200.333 176.667M440 176L440 179L441 179L440 176M223.333 177.667L223.667 178.333L223.333 177.667M417 177L418 182L419 182L417 177M199.333 178.667L199.667 179.333L199.333 178.667M222.333 179.667L222.667 180.333L222.333 179.667M441.333 179.667L441.667 180.333L441.333 179.667M198.333 180.667L198.667 181.333L198.333 180.667M221.333 181.667L221.667 182.333L221.333 181.667M442.333 181.667L442.667 182.333L442.333 181.667M197.333 182.667L197.667 183.333L197.333 182.667M419.333 182.667L419.667 183.333L419.333 182.667M220.333 183.667L220.667 184.333L220.333 183.667M443.333 183.667L443.667 184.333L443.333 183.667M196.333 184.667L196.667 185.333L196.333 184.667M420.333 184.667L420.667 185.333L420.333 184.667M219.333 185.667L219.667 186.333L219.333 185.667M444.333 185.667L444.667 186.333L444.333 185.667M195.333 186.667L195.667 187.333L195.333 186.667M421.333 186.667L421.667 187.333L421.333 186.667M218.333 187.667L218.667 188.333L218.333 187.667M445.333 187.667L445.667 188.333L445.333 187.667M194.333 188.667L194.667 189.333L194.333 188.667M422.333 188.667L422.667 189.333L422.333 188.667M446.333 189.667L446.667 190.333L446.333 189.667M193 190L193 193L194 193L193 190M217 190L215 196L216 196L217 190M423.333 190.667L423.667 191.333L423.333 190.667M447.333 191.667L447.667 192.333L447.333 191.667M424.333 192.667L424.667 193.333L424.333 192.667M192.333 193.667L192.667 194.333L192.333 193.667M448.333 193.667L448.667 194.333L448.333 193.667M425.333 194.667L425.667 195.333L425.333 194.667M191.333 195.667L191.667 196.333L191.333 195.667M449.333 195.667L449.667 196.333L449.333 195.667M214.333 196.667L214.667 197.333L214.333 196.667M361 197C360.533 200.693 360.019 204.265 360.001 208C359.99 210.327 359.922 212.675 360.04 215C360.265 219.436 364.376 227.53 369.397 221.678C375.872 214.13 372.546 194.961 361 197M426.333 196.667L426.667 197.333L426.333 196.667M190.333 197.667L190.667 198.333L190.333 197.667z"/>
<path style="fill:#fac41a; stroke:none;" d="M364.302 198.137C359.92 200.506 360.286 224.205 366.871 221.593C372.918 219.194 371.028 194.499 364.302 198.137z"/>
<path style="fill:#e9e9e4; stroke:none;" d="M450.333 197.667L450.667 198.333L450.333 197.667M213.333 198.667L213.667 199.333L213.333 198.667M427 198L428 203L429 203L427 198M189.333 199.667L189.667 200.333L189.333 199.667M451.333 199.667L451.667 200.333L451.333 199.667M212.333 200.667L212.667 201.333L212.333 200.667M188.333 201.667L188.667 202.333L188.333 201.667M452.333 201.667L452.667 202.333L452.333 201.667M211.333 202.667L211.667 203.333L211.333 202.667M187.333 203.667L187.667 204.333L187.333 203.667M429.333 203.667L429.667 204.333L429.333 203.667M453.333 203.667L453.667 204.333L453.333 203.667M210.333 204.667L210.667 205.333L210.333 204.667M186 205L185 210L186 210L186 205M430 205L432 208L430 205M454.333 205.667L454.667 206.333L454.333 205.667M209.333 206.667L209.667 207.333L209.333 206.667M455.333 207.667L455.667 208.333L455.333 207.667M208.333 208.667L208.667 209.333L208.333 208.667M432 209L433 213L434 213L432 209M456.333 209.667L456.667 210.333L456.333 209.667M184.333 210.667L184.667 211.333L184.333 210.667M207.333 211.667L207.667 212.333L207.333 211.667M457.333 211.667L457.667 212.333L457.333 211.667M183.333 212.667L183.667 213.333L183.333 212.667M206.333 213.667L206.667 214.333L206.333 213.667M434 213L436 216L434 213M458.333 213.667L458.667 214.333L458.333 213.667M182.333 214.667L182.667 215.333L182.333 214.667M205.333 215.667L205.667 216.333L205.333 215.667M459.333 215.667L459.667 216.333L459.333 215.667M181 216L180 219L181 216M204.333 217.667L204.667 218.333L204.333 217.667M436 217L437 218L436 217M460.333 217.667L460.667 218.333L460.333 217.667M437 218L440 226L441 226L437 218M179.333 219.667L179.667 220.333L179.333 219.667M203.333 219.667L203.667 220.333L203.333 219.667M461 219L462 220L461 219M178.333 221.667L178.667 222.333L178.333 221.667M202.333 221.667L202.667 222.333L202.333 221.667M462 221L463 222L462 221M463.333 222.667L463.667 223.333L463.333 222.667M177.333 223.667L177.667 224.333L177.333 223.667M201.333 223.667L201.667 224.333L201.333 223.667M464.333 224.667L464.667 225.333L464.333 224.667M176.333 225.667L176.667 226.333L176.333 225.667M200.333 225.667L200.667 226.333L200.333 225.667M441.333 226.667L441.667 227.333L441.333 226.667M465.333 226.667L465.667 227.333L465.333 226.667M175 227L174 230L175 227M199.333 227.667L199.667 228.333L199.333 227.667M442.333 228.667L442.667 229.333L442.333 228.667M466.333 228.667L466.667 229.333L466.333 228.667M198 229L199 230L198 229M173.333 230.667L173.667 231.333L173.333 230.667M361 231C360.533 234.693 360.019 238.265 360.001 242C359.99 244.327 359.922 246.675 360.04 249C360.271 253.55 365.276 262.076 369.972 255.427C375.667 247.363 372.396 228.987 361 231M443.333 230.667L443.667 231.333L443.333 230.667M467.333 230.667L467.667 231.333L467.333 230.667z"/>
<path style="fill:#6c9ecc; stroke:none;" d="M182.313 232.086C177.668 234.706 178.444 259.479 185.687 254.953C190.8 251.758 190.191 227.643 182.313 232.086z"/>
<path style="fill:#e9e9e4; stroke:none;" d="M197 231L196 234L197 231z"/>
<path style="fill:#fac41a; stroke:none;" d="M364.302 232.137C359.92 234.506 360.286 258.205 366.871 255.593C372.918 253.194 371.028 228.499 364.302 232.137z"/>
<path style="fill:#e9e9e4; stroke:none;" d="M172.333 232.667L172.667 233.333L172.333 232.667M444.333 232.667L444.667 233.333L444.333 232.667M468.333 232.667L468.667 233.333L468.333 232.667M171.333 234.667L171.667 235.333L171.333 234.667M195.333 234.667L195.667 235.333L195.333 234.667M445 234L446 235L445 234M469 234L471 237L469 234M446.333 235.667L446.667 236.333L446.333 235.667M170 236L169 239L170 236M194.333 236.667L194.667 237.333L194.333 236.667M447.333 237.667L447.667 238.333L447.333 237.667M193.333 238.667L193.667 239.333L193.333 238.667M471 238L472 239L471 238M168.333 239.667L168.667 240.333L168.333 239.667M448.333 239.667L448.667 240.333L448.333 239.667M472.333 239.667L472.667 240.333L472.333 239.667M192.333 240.667L192.667 241.333L192.333 240.667M167.333 241.667L167.667 242.333L167.333 241.667M449.333 241.667L449.667 242.333L449.333 241.667M473.333 241.667L473.667 242.333L473.333 241.667M191 242L192 243L191 242M166 243L165 246L166 243M190.333 243.667L190.667 244.333L190.333 243.667M450.333 243.667L450.667 244.333L450.333 243.667M474.333 243.667L474.667 244.333L474.333 243.667M189.333 245.667L189.667 246.333L189.333 245.667M451.333 245.667L451.667 246.333L451.333 245.667M475.333 245.667L475.667 246.333L475.333 245.667M164.333 246.667L164.667 247.333L164.333 246.667z"/>
<path style="fill:#b0acab; stroke:none;" d="M188.333 246.667L188.667 247.333L188.333 246.667z"/>
<path style="fill:#e9e9e4; stroke:none;" d="M452.333 247.667L452.667 248.333L452.333 247.667M476 247L477 248L476 247M163 248L164 249L163 248M188 248L185 256L185 257C188.691 254.965 189.624 251.916 188 248M477.333 248.667L477.667 249.333L477.333 248.667M162.333 249.667L162.667 250.333L162.333 249.667M453 249L454 250L453 249M478.333 250.667L478.667 251.333L478.333 250.667M161.333 251.667L161.667 252.333L161.333 251.667M454.333 251.667L454.667 252.333L454.333 251.667M479 252L480 253L479 252M160 253L161 254L160 253M455 253L456 254L455 253M480.333 253.667L480.667 254.333L480.333 253.667M159.333 254.667L159.667 255.333L159.333 254.667z"/>
<path style="fill:#b0acab; stroke:none;" d="M187 254L188 255L187 254z"/>
<path style="fill:#e9e9e4; stroke:none;" d="M456.333 254.667L456.667 255.333L456.333 254.667z"/>
<path style="fill:#b0acab; stroke:none;" d="M186 255L187 256L186 255z"/>
<path style="fill:#e9e9e4; stroke:none;" d="M481 255L483 258L481 255M158 256L157 259L158 256M457.333 256.667L457.667 257.333L457.333 256.667M182 259L185 258L182 259M458 258L459 259L458 258M483.333 258.667L483.667 259.333L483.333 258.667M156.333 259.667L156.667 260.333L156.333 259.667M181.333 259.667L181.667 260.333L181.333 259.667M459.333 259.667L459.667 260.333L459.333 259.667M484 260L485 261L484 260M155 261L156 262L155 261M180 261L179 264L180 261M183 261L184 262L183 261M460.333 261.667L460.667 262.333L460.333 261.667M485.333 261.667L485.667 262.333L485.333 261.667M154.333 262.667L154.667 263.333L154.333 262.667M461 263L462 264L461 263M486 263L487 264L486 263M153 264L154 265L153 264M178 264L177 267L178 264M184 264L185 265L184 264M361 265C360.533 268.693 360.019 272.265 360.001 276C359.99 278.327 359.922 280.675 360.04 283C360.271 287.55 365.276 296.076 369.972 289.427C375.616 281.436 372.394 263.011 361 265M462.333 264.667L462.667 265.333L462.333 264.667M487.333 264.667L487.667 265.333L487.333 264.667M152.333 265.667L152.667 266.333L152.333 265.667M180 267L183 266L180 267z"/>
<path style="fill:#b0acab; stroke:none;" d="M183 265L183 266L186 266L183 265z"/>
<path style="fill:#e9e9e4; stroke:none;" d="M186 265C189.209 272.574 189.209 283.426 186 291C190.968 286.135 190.968 269.865 186 265z"/>
<path style="fill:#fac41a; stroke:none;" d="M365.104 266.086C359.637 267.324 359.984 291.785 366.791 290.029C372.313 288.605 372.126 264.497 365.104 266.086z"/>
<path style="fill:#b0acab; stroke:none;" d="M181 266L180 268L181 266z"/>
<path style="fill:#6c9ecc; stroke:none;" d="M182.313 267.047C177.278 270.195 179.569 293.953 186.258 288.953C190.03 286.134 189.597 262.493 182.313 267.047z"/>
<path style="fill:#e9e9e4; stroke:none;" d="M463.333 266.667L463.667 267.333L463.333 266.667M488 266L489 267L488 266M151 267L152 268L151 267M176.333 267.667L176.667 268.333L176.333 267.667M489.333 267.667L489.667 268.333L489.333 267.667M150.333 268.667L150.667 269.333L150.333 268.667M179 268L179 288L180 288L179 268M464 268L465 269L464 268M175 269L174 272L175 269M465.333 269.667L465.667 270.333L465.333 269.667M490 269L491 270L490 269M149 270L148 273L149 270M491.333 270.667L491.667 271.333L491.333 270.667M466 271L468 274L466 271M173 272L174 273L173 272M492 272L494 275L492 272M147 273L146 276L147 273M172.333 273.667L172.667 274.333L172.333 273.667M468 274L470 277L468 274M171 275L170 278L171 275M494 275L495 276L494 275M145 276L146 277L145 276M495.333 276.667L495.667 277.333L495.333 276.667M144.333 277.667L144.667 278.333L144.333 277.667M470.333 277.667L470.667 278.333L470.333 277.667M169.333 278.667L169.667 279.333L169.333 278.667M496 278L497 279L496 278M143 279L144 280L143 279M471 279L472 280L471 279M497 279L498 280L497 279M142 280L143 281L142 280M168 280L169 281L168 280M472.333 280.667L472.667 281.333L472.333 280.667M498.333 280.667L498.667 281.333L498.333 280.667M141.333 281.667L141.667 282.333L141.333 281.667M167.333 281.667L167.667 282.333L167.333 281.667M473 282L474 283L473 282M499 282L500 283L499 282M140 283L141 284L140 283M166 283L167 284L166 283M474.333 283.667L474.667 284.333L474.333 283.667M500 283L502 286L500 283M139.333 284.667L139.667 285.333L139.333 284.667M165.333 284.667L165.667 285.333L165.333 284.667M475 285L476 286L475 285M138 286L139 287L138 286M164 286L165 287L164 286M476 286L478 289L476 286M502 286L503 287L502 286M137 287L138 288L137 287M163.333 287.667L163.667 288.333L163.333 287.667M503 287L505 290L503 287M136 288L135 291L136 288z"/>
<path style="fill:#b0acab; stroke:none;" d="M180 288L182 290L180 288M187 288L188 289L187 288z"/>
<path style="fill:#e9e9e4; stroke:none;" d="M162 289L163 290L162 289M180 289L181 290L180 289M478 289L480 292L478 289M161 290L162 291L161 290M181 290L181 291L185 292L185 291L181 290z"/>
<path style="fill:#b0acab; stroke:none;" d="M183 290L183 291L186 291L183 290z"/>
<path style="fill:#e9e9e4; stroke:none;" d="M505 290L506 291L505 290M134 291L135 292L134 291M160.333 291.667L160.667 292.333L160.333 291.667M506 291L507 292L506 291M133.333 292.667L133.667 293.333L133.333 292.667M480 292L481 293L480 292M507 292L508 293L507 292M159 293L160 294L159 293M481 293L483 296L481 293M508 293L510 296L508 293M132 294L133 295L132 294M158 294L159 295L158 294M131 295L132 296L131 295M157.333 295.667L157.667 296.333L157.333 295.667M130 296L128 300L130 296M483 296L484 297L483 296M510 296L511 297L510 296M156 297L157 298L156 297M484.333 297.667L484.667 298.333L484.333 297.667M511 297L512 298L511 297M155.333 298.667L155.667 299.333L155.333 298.667M364.133 298.836C356.874 301.318 357.44 329.574 367.853 325.381C373.599 323.067 373.916 295.492 364.133 298.836M512 298L513 299L512 298M179 322L180 322C180 315.27 177.891 305.004 183 300C176.486 299.846 179 317.379 179 322z"/>
<path style="fill:#b0acab; stroke:none;" d="M183.667 299.333L184.333 299.667L183.667 299.333z"/>
<path style="fill:#e9e9e4; stroke:none;" d="M185 299L185 300C190.415 305.303 188.756 318.496 186 325C190.9 320.202 191.442 302.552 185 299z"/>
<path style="fill:#fac41a; stroke:none;" d="M365.104 300.086C359.533 301.347 360.155 326.05 366.791 324.11C372.303 322.498 372.112 298.5 365.104 300.086z"/>
<path style="fill:#e9e9e4; stroke:none;" d="M485 299L486 300L485 299M513 299L516 303L513 299M127 300L128 301L127 300M154 300L155 301L154 300z"/>
<path style="fill:#b0acab; stroke:none;" d="M181 300L180 302L181 300z"/>
<path style="fill:#6c9ecc; stroke:none;" d="M182.302 301.047C177.339 304.204 179.41 328.064 186.397 322.953C190.115 320.233 189.392 296.537 182.302 301.047z"/>
<path style="fill:#e9e9e4; stroke:none;" d="M486 300L487 301L486 300M126 301L127 302L126 301M153 301L154 302L153 301z"/>
<path style="fill:#b0acab; stroke:none;" d="M187 301L188 302L187 301z"/>
<path style="fill:#e9e9e4; stroke:none;" d="M487 301L490 305L487 301M125 302L126 303L125 302M152 302L153 303L152 302M124 303L122 307L124 303M151.333 303.667L151.667 304.333L151.333 303.667M516 303L517 304L516 303M517 304L518 305L517 304M150 305L151 306L150 305M490 305L491 306L490 305M518 305L519 306L518 305M149.333 306.667L149.667 307.333L149.333 306.667M491 306L492 307L491 306M519 306L520 307L519 306M121 307L122 308L121 307M492 307L494 310L492 307M520 307L524 312L520 307M120 308L121 309L120 308M148 308L149 309L148 308M119 309L120 310L119 309M147 309L148 310L147 309M118 310L119 311L118 310M146 310L147 311L146 310M494 310L495 311L494 310M117 311L118 312L117 311M145 311L144 314L145 311M495 311L496 312L495 311M116 312L117 313L116 312M496 312L497 313L496 312M524 312L525 313L524 312M115 313L116 314L115 313M497 313L500 317L497 313M525 313L526 314L525 313M114 314L115 315L114 314M143 314L144 315L143 314M526 314L527 315L526 314M113 315L114 316L113 315M142 315L143 316L142 315M527 315L528 316L527 315M112 316L113 317L112 316M141 316L142 317L141 316M528 316L529 317L528 316M111 317L112 318L111 317M140 317L141 318L140 317M500 317L501 318L500 317M529 317L530 318L529 317M107 321L111 318L107 321M139 318L137 322L139 318M501 318L502 319L501 318M530 318L531 319L530 318M502 319L503 320L502 319M531 319L532 320L531 319M503 320L504 321L503 320M532 320L533 321L532 320M106 321L107 322L106 321M504 321L508 326L504 321M533 321L537 324L533 321M105 322L106 323L105 322M136 322L137 323L136 322z"/>
<path style="fill:#b0acab; stroke:none;" d="M180 322L182 324L180 322z"/>
<path style="fill:#e9e9e4; stroke:none;" d="M104 323L105 324L104 323M135 323L136 324L135 323M180 323L181 324L180 323M103 324L104 325L103 324M134 324L135 325L134 324M181 324L181 325L185 326L185 325L181 324z"/>
<path style="fill:#b0acab; stroke:none;" d="M183 324L183 325L186 325L183 324z"/>
<path style="fill:#e9e9e4; stroke:none;" d="M537 324L538 325L537 324M100 327L103 325L100 327M133 325L134 326L133 325M538 325L539 326L538 325M132 326L133 327L132 326M508 326L509 327L508 326M539 326L542 328L539 326M99 327L100 328L99 327M131 327L132 328L131 327M509 327L510 328L509 327M98 328L99 329L98 328M130 328L131 329L130 328M510 328L511 329L510 328M542 328L543 329L542 328M96.6667 329.333L97.3333 329.667L96.6667 329.333M129 329L130 330L129 329M511 329L512 330L511 329M543 329L544 330L543 329M95 330L96 331L95 330M128 330L129 331L128 330M512 330L513 331L512 330M544.667 330.333L545.333 330.667L544.667 330.333M94 331L95 332L94 331M127 331L128 332L127 331M513 331L514 332L513 331M546 331L547 332L546 331M92.6667 332.333L93.3333 332.667L92.6667 332.333M122 336L127 332L122 336M364.133 332.847C357.11 335.146 357.409 362.284 366.946 359.893C373.862 358.159 373.998 329.618 364.133 332.847M514 332L515 333L514 332M547.667 332.333L548.333 332.667L547.667 332.333M91 333L92 334L91 333M180 335L183 334L180 335z"/>
<path style="fill:#b0acab; stroke:none;" d="M183.667 333.333L184.333 333.667L183.667 333.333z"/>
<path style="fill:#e9e9e4; stroke:none;" d="M185 333L185 334C190.377 339.265 190.066 355.436 183 359L183 360C191.309 357.59 192.24 336.992 185 333M515 333L516 334L515 333M549 333L550 334L549 333M90 334L91 335L90 334z"/>
<path style="fill:#b0acab; stroke:none;" d="M181 334L180 336L181 334z"/>
<path style="fill:#6c9ecc; stroke:none;" d="M182.313 335.086C177.893 337.585 178.062 360.839 185.698 357.377C190.542 355.181 189.271 331.153 182.313 335.086z"/>
<path style="fill:#b0acab; stroke:none;" d="M186 334L187 335L186 334z"/>
<path style="fill:#fac41a; stroke:none;" d="M363.603 335.047C359.848 337.794 360.713 361.764 367.571 357.762C372.861 354.675 370.576 329.946 363.603 335.047z"/>
<path style="fill:#e9e9e4; stroke:none;" d="M516 334L517 335L516 334M550.667 334.333L551.333 334.667L550.667 334.333M88.6667 335.333L89.3333 335.667L88.6667 335.333z"/>
<path style="fill:#b0acab; stroke:none;" d="M187 335L188 336L187 335z"/>
<path style="fill:#e9e9e4; stroke:none;" d="M517 335L523 340L517 335M552 335L553 336L552 335M87 336L88 337L87 336M121 336L122 337L121 336M179 336L179 356L180 356L179 336M553 336L554 337L553 336M84 339L87 337L84 339M120 337L121 338L120 337M554.667 337.333L555.333 337.667L554.667 337.333M119 338L120 339L119 338M556 338L557 339L556 338M83 339L84 340L83 339M118 339L119 340L118 339M557.667 339.333L558.333 339.667L557.667 339.333M81.6667 340.333L82.3333 340.667L81.6667 340.333M117 340L118 341L117 340M523 340L524 341L523 340M559 340L560 341L559 340M80 341L81 342L80 341M115.667 341.333L116.333 341.667L115.667 341.333M524 341L525 342L524 341M560.667 341.333L561.333 341.667L560.667 341.333M78.6667 342.333L79.3333 342.667L78.6667 342.333M114 342L115 343L114 342M525 342L528 344L525 342M562 342L563 343L562 342M76.6667 343.333L77.3333 343.667L76.6667 343.333M113 343L114 344L113 343M563.667 343.333L564.333 343.667L563.667 343.333M75 344L76 345L75 344M111.667 344.333L112.333 344.667L111.667 344.333M528 344L529 345L528 344M565.667 344.333L566.333 344.667L565.667 344.333M73 345L74 346L73 345M110 345L111 346L110 345M529 345L532 347L529 345M567.667 345.333L568.333 345.667L567.667 345.333M71.6667 346.333L72.3333 346.667L71.6667 346.333M109 346L110 347L109 346M569.667 346.333L570.333 346.667L569.667 346.333M69.6667 347.333L70.3333 347.667L69.6667 347.333M106 349L109 347L106 349M532 347L533 348L532 347M571 347L571 348L575 349L575 348L571 347M67.6667 348.333L68.3333 348.667L67.6667 348.333M533.667 348.333L534.333 348.667L533.667 348.333M64 349L64 350L67 350L64 349M105 349L106 350L105 349M535 349L536 350L535 349M575.667 349.333L576.333 349.667L575.667 349.333M62.6667 350.333L63.3333 350.667L62.6667 350.333M104 350L105 351L104 350M536 350L539 352L536 350M577.667 350.333L578.333 350.667L577.667 350.333M60.6667 351.333L61.3333 351.667L60.6667 351.333M102.667 351.333L103.333 351.667L102.667 351.333M579.667 351.333L580.333 351.667L579.667 351.333M57 352L57 353L60 353L57 352M101 352L102 353L101 352M539 352L540 353L539 352M581 352L581 353L586 354L586 353L581 352M55.6667 353.333L56.3333 353.667L55.6667 353.333M100 353L101 354L100 353M540.667 353.333L541.333 353.667L540.667 353.333M52.6667 354.333L53.3333 354.667L52.6667 354.333M98.6667 354.333L99.3333 354.667L98.6667 354.333M542 354L543 355L542 354M586 354L586 355L589 355L586 354M49 355L49 356L52 356L49 355M97 355L98 356L97 355M543.667 355.333L544.333 355.667L543.667 355.333M589.667 355.333L590.333 355.667L589.667 355.333M47.6667 356.333L48.3333 356.667L47.6667 356.333M95.6667 356.333L96.3333 356.667L95.6667 356.333z"/>
<path style="fill:#b0acab; stroke:none;" d="M180 356L181 357L180 356z"/>
<path style="fill:#e9e9e4; stroke:none;" d="M545 356L546 357L545 356M591 356L591 357L594 357L591 356M44 357L44 358L47 358L44 357M94 357L95 358L94 357M180 357L181 358L180 357M546 357L549 359L546 357M594 357L594 358L597 358L594 357M42.6667 358.333L43.3333 358.667L42.6667 358.333M92.6667 358.333L93.3333 358.667L92.6667 358.333M181 358L182 359L181 358z"/>
<path style="fill:#b0acab; stroke:none;" d="M182 358L182 359L186 359L182 358z"/>
<path style="fill:#e9e9e4; stroke:none;" d="M597.667 358.333L598.333 358.667L597.667 358.333M38 359L38 360L41 360L38 359M91 359L92 360L91 359M549 359L552 361L549 359M600 359L600 360L603 360L600 359M35 360L35 361L38 361L35 360M89.6667 360.333L90.3333 360.667L89.6667 360.333M603 360L603 361L606 361L603 360M31 361L31 362L35 362L31 361M88 361L89 362L88 361M552.667 361.333L553.333 361.667L552.667 361.333M607 361L607 362L611 362L607 361M26 362L26 363L30 363L26 362M86.6667 362.333L87.3333 362.667L86.6667 362.333M554.667 362.333L555.333 362.667L554.667 362.333M611 362L611 363L615 363L611 362M22 363L22 364L26 364L22 363M84.6667 363.333L85.3333 363.667L84.6667 363.333M556 363L559 365L556 363M615 363L615 364L619 364L615 363M13 365L13 366L22 365L13 365M82.6667 364.333L83.3333 364.667L82.6667 364.333M619 364L619 365L623 365L619 364M80.6667 365.333L81.3333 365.667L80.6667 365.333M559.667 365.333L560.333 365.667L559.667 365.333M623 365L623 366L627 366L623 365M9 366L9 367L13 367L9 366M78.6667 366.333L79.3333 366.667L78.6667 366.333M360 367L360 389L362 389C362 384.847 359.827 371.291 364.313 369.176C371.847 365.624 370 385.678 370 389C374.234 378.911 372.549 365.526 360 367M561.667 366.333L562.333 366.667L561.667 366.333M628 366L628 367L632 367L628 366M2 367L2 368L9 368L2 367M76.6667 367.333L77.3333 367.667L76.6667 367.333M179 389L180 389C180 384.989 177.705 368.636 184.05 368.636C190.35 368.636 188 384.967 188 389C189.869 384.547 189.975 375.766 188.682 371.059C187.748 367.658 183.479 365.837 180.742 368.604C176.884 372.505 179 383.899 179 389M563.667 367.333L564.333 367.667L563.667 367.333M632 367L632 368L638 368L632 367M1 368L1 389L2 389L1 368M74.6667 368.333L75.3333 368.667L74.6667 368.333z"/>
<path style="fill:#b0acab; stroke:none;" d="M181 368L182 369L181 368z"/>
<path style="fill:#6c9ecc; stroke:none;" d="M180 389L188 389C188 384.915 190.371 368.636 184 368.636C177.629 368.636 180 384.915 180 389z"/>
<path style="fill:#b0acab; stroke:none;" d="M186 368L187 369L186 368z"/>
<path style="fill:#fac41a; stroke:none;" d="M362 389L370 389C370 385.937 371.574 363.217 363.603 369.047C359.842 371.797 362 384.74 362 389z"/>
<path style="fill:#e9e9e4; stroke:none;" d="M565.667 368.333L566.333 368.667L565.667 368.333M638 368L638 369L640 371L641 371L638 368M72.6667 369.333L73.3333 369.667L72.6667 369.333z"/>
<path style="fill:#b0acab; stroke:none;" d="M187 369L188 370L187 369z"/>
<path style="fill:#e9e9e4; stroke:none;" d="M567.667 369.333L568.333 369.667L567.667 369.333M69.6667 370.333L70.3333 370.667L69.6667 370.333M569.667 370.333L570.333 370.667L569.667 370.333M67.6667 371.333L68.3333 371.667L67.6667 371.333M571 371L571 372L574 372L571 371M64 372L64 373L67 373L64 372M574.667 372.333L575.333 372.667L574.667 372.333M62.6667 373.333L63.3333 373.667L62.6667 373.333M577.667 373.333L578.333 373.667L577.667 373.333M59.6667 374.333L60.3333 374.667L59.6667 374.333M579 374L579 375L582 375L579 374M56 375L56 376L59 376L56 375M582.667 375.333L583.333 375.667L582.667 375.333M54.6667 376.333L55.3333 376.667L54.6667 376.333M584 376L584 377L587 377L584 376M51 377L51 378L54 378L51 377M587 377L587 378L590 378L587 377M48 378L48 379L51 379L48 378M590 378L590 379L593 379L590 378M45 379L45 380L48 380L45 379M593 379L593 380L596 380L593 379M42 380L42 381L45 381L42 380M596 380L596 381L599 381L596 380M38 381L38 382L42 382L38 381M599 381L599 382L603 382L599 381M34 382L34 383L37 383L34 382M604 382L604 383L607 383L604 382M30 383L30 384L34 384L30 383M608 383L608 384L611 384L608 383M26 384L26 385L29 385L26 384M612 384L612 385L615 385L612 384M21 385L21 386L25 386L21 385M616 385L616 386L620 386L616 385M640 385L640 389L641 389L640 385M17 386L17 387L21 387L17 386M620 386L620 387L624 387L620 386M12 387L12 388L16 388L12 387M625 387L625 388L629 388L625 387M6 388L6 389L12 389L6 388M629 388L629 389L635 389L629 388z"/>
</svg>
